<svg xmlns="http://www.w3.org/2000/svg" width="1200" height="420" viewBox="0 0 1200 420" role="img" aria-labelledby="tokenboard-title tokenboard-description">
  <title id="tokenboard-title">Tokenboard native macOS menu-bar preview</title>
  <desc id="tokenboard-description">A graphite product banner with sample data. The menu bar shows 1.28M tokens, and the open Tokenboard menu shows This Month, 1,284,930 tokens, approximately 4 euros and 68 cents API equivalent, EUR currency, token display, and native refresh, pricing, settings, and quit actions.</desc>
  <defs>
    <linearGradient id="background" x1="0" y1="0" x2="1200" y2="420" gradientUnits="userSpaceOnUse">
      <stop stop-color="#12151B"/>
      <stop offset="0.58" stop-color="#181C24"/>
      <stop offset="1" stop-color="#0F1218"/>
    </linearGradient>
    <radialGradient id="glow" cx="0" cy="0" r="1" gradientTransform="translate(948 176) rotate(138) scale(356 270)" gradientUnits="userSpaceOnUse">
      <stop stop-color="#7B8DA8" stop-opacity="0.23"/>
      <stop offset="0.55" stop-color="#41506A" stop-opacity="0.09"/>
      <stop offset="1" stop-color="#12151B" stop-opacity="0"/>
    </radialGradient>
    <linearGradient id="desktop" x1="730" y1="36" x2="1146" y2="398" gradientUnits="userSpaceOnUse">
      <stop stop-color="#343A46"/>
      <stop offset="1" stop-color="#232833"/>
    </linearGradient>
    <linearGradient id="menu" x1="772" y1="88" x2="1108" y2="394" gradientUnits="userSpaceOnUse">
      <stop stop-color="#252A34"/>
      <stop offset="1" stop-color="#1C2028"/>
    </linearGradient>
    <filter id="shadow" x="-20%" y="-20%" width="140%" height="150%">
      <feDropShadow dx="0" dy="18" stdDeviation="22" flood-color="#000000" flood-opacity="0.42"/>
    </filter>
  </defs>

  <rect width="1200" height="420" rx="24" fill="url(#background)"/>
  <rect width="1200" height="420" rx="24" fill="url(#glow)"/>

  <g font-family="-apple-system, BlinkMacSystemFont, 'SF Pro Display', 'Helvetica Neue', Arial, sans-serif">
    <rect x="64" y="62" width="3" height="31" rx="1.5" fill="#AAB7C9"/>
    <text x="83" y="83" fill="#AAB7C9" font-size="13" font-weight="700" letter-spacing="2.2">TOKENBOARD FOR MACOS</text>

    <text x="64" y="145" fill="#F6F8FB" font-size="48" font-weight="700" letter-spacing="-1.8">Your local AI usage.</text>
    <text x="64" y="199" fill="#F6F8FB" font-size="48" font-weight="700" letter-spacing="-1.8">One glance away.</text>

    <text x="64" y="244" fill="#B5BECC" font-size="18" font-weight="450">Exact Claude Code and Codex token totals,</text>
    <text x="64" y="270" fill="#B5BECC" font-size="18" font-weight="450">private on your Mac.</text>

    <g font-size="13" font-weight="600" fill="#D9DFE8">
      <rect x="64" y="310" width="120" height="34" rx="17" fill="#FFFFFF" fill-opacity="0.07" stroke="#FFFFFF" stroke-opacity="0.11"/>
      <circle cx="82" cy="327" r="4" fill="#8FA4C2"/>
      <text x="94" y="332">Native AppKit</text>

      <rect x="194" y="310" width="103" height="34" rx="17" fill="#FFFFFF" fill-opacity="0.07" stroke="#FFFFFF" stroke-opacity="0.11"/>
      <circle cx="212" cy="327" r="4" fill="#8FA4C2"/>
      <text x="224" y="332">Local only</text>

      <rect x="307" y="310" width="122" height="34" rx="17" fill="#FFFFFF" fill-opacity="0.07" stroke="#FFFFFF" stroke-opacity="0.11"/>
      <circle cx="325" cy="327" r="4" fill="#8FA4C2"/>
      <text x="337" y="332">No telemetry</text>
    </g>

    <text x="64" y="380" fill="#747F90" font-size="12" font-weight="500" letter-spacing="0.3">NATIVE APPKIT  ·  SANDBOXED  ·  EVENT-DRIVEN</text>

    <g filter="url(#shadow)">
      <rect x="716" y="26" width="438" height="376" rx="24" fill="url(#desktop)" stroke="#FFFFFF" stroke-opacity="0.12"/>
      <rect x="734" y="43" width="402" height="38" rx="11" fill="#11151C" fill-opacity="0.72" stroke="#FFFFFF" stroke-opacity="0.08"/>
      <circle cx="755" cy="62" r="3" fill="#778397"/>
      <circle cx="768" cy="62" r="3" fill="#778397" fill-opacity="0.62"/>
      <rect x="1025" y="49" width="94" height="26" rx="13" fill="#DCE3ED" fill-opacity="0.14" stroke="#FFFFFF" stroke-opacity="0.12"/>
      <text x="1072" y="67" text-anchor="middle" fill="#F2F5F9" font-size="14" font-weight="650">1.28M</text>

      <rect x="760" y="86" width="358" height="302" rx="17" fill="url(#menu)" stroke="#FFFFFF" stroke-opacity="0.15"/>
      <path d="M777 190.5H1101" stroke="#FFFFFF" stroke-opacity="0.11"/>
      <path d="M777 279.5H1101" stroke="#FFFFFF" stroke-opacity="0.11"/>
      <path d="M777 358.5H1101" stroke="#FFFFFF" stroke-opacity="0.11"/>

      <text x="780" y="112" fill="#AEB8C6" font-size="11.5" font-weight="700" letter-spacing="0.8">THIS MONTH</text>
      <text x="1098" y="112" text-anchor="end" fill="#AEB8C6" font-size="11.5" font-weight="700" letter-spacing="0.55">UPDATED 1 MIN. AGO</text>
      <text x="780" y="145" fill="#F3F5F8" font-size="21" font-weight="650">1,284,930 tokens</text>
      <text x="780" y="171" fill="#B2BBC8" font-size="13" font-weight="500">≈ €4.68 API equivalent</text>

      <g fill="#E7EBF1" font-size="14" font-weight="500">
        <text x="780" y="214">Period: This Month</text>
        <text x="780" y="241">Currency: EUR</text>
        <text x="780" y="268">Menu Bar: Tokens</text>
      </g>
      <g fill="none" stroke="#9BA5B4" stroke-width="1.5" stroke-linecap="round" stroke-linejoin="round">
        <path d="M1092 207l5 5-5 5"/>
        <path d="M1092 234l5 5-5 5"/>
        <path d="M1092 261l5 5-5 5"/>
      </g>

      <g fill="#E7EBF1" font-size="14" font-weight="500">
        <text x="808" y="305">Refresh Now</text>
        <text x="808" y="329">Pricing</text>
        <text x="808" y="353">Settings</text>
        <text x="780" y="380">Quit Tokenboard</text>
      </g>
      <g fill="none" stroke="#AEB8C6" stroke-width="1.45" stroke-linecap="round" stroke-linejoin="round">
        <path d="M795 294a7 7 0 1 0 1.8 6.7M797 292v5h-5"/>
        <rect x="787" y="316" width="16" height="10" rx="2"/>
        <circle cx="795" cy="321" r="2"/>
        <path d="M790 319h-2M802 323h2"/>
        <circle cx="795" cy="345" r="3.2"/>
        <path d="M795 338v2M795 350v2M788 345h2M800 345h2M790.1 340.1l1.4 1.4M798.5 348.5l1.4 1.4M799.9 340.1l-1.4 1.4M791.5 348.5l-1.4 1.4"/>
      </g>
      <g fill="#737E8E" font-size="12" font-weight="500">
        <text x="1098" y="305" text-anchor="end">⌘ R</text>
        <text x="1098" y="353" text-anchor="end">⌘ ,</text>
        <text x="1098" y="380" text-anchor="end">⌘ Q</text>
      </g>
    </g>
  </g>
</svg>
